PathFileType	4	(X/Y/Z)	C:\Users\86182\Documents\cortex\Trimmed_M4_H3.trc
DataRate	CameraRate	NumFrames	NumMarkers	Units	OrigDataRate	OrigDataStartFrame	OrigNumFrames
100.00	100.00	       112	2	mm	100.00	361	       901
Frame#	Time	gripper			box			
		X1	Y1	Z1	X2	Y2	Z2	

361	3.600	276.16495	151.19290	292.40680	279.24353	147.54407	156.79492	
362	3.610	276.16187	151.21098	292.45013	279.22748	147.55011	156.87212	
363	3.620	276.16391	151.22572	292.48297	279.20700	147.55734	156.92607	
364	3.630	276.16876	151.23642	292.50827	279.18597	147.56442	156.96010	
365	3.640	276.17410	151.24297	292.52808	279.16769	147.57031	156.97845	
366	3.650	276.17868	151.24585	292.54367	279.15387	147.57458	156.98572	
367	3.660	276.18240	151.24602	292.55566	279.14487	147.57722	156.98604	
368	3.670	276.18613	151.24463	292.56427	279.14020	147.57849	156.98265	
369	3.680	276.19089	151.24292	292.56958	279.13922	147.57875	156.97783	
370	3.690	276.19714	151.24182	292.57187	279.14111	147.57835	156.97299	
371	3.700	276.20465	151.24176	292.57150	279.14526	147.57773	156.96887	
372	3.710	276.21274	151.24271	292.56918	279.15088	147.57719	156.96582	
373	3.720	276.22070	151.24434	292.56564	279.15704	147.57712	156.96407	
374	3.730	276.22763	151.24620	292.56174	279.16266	147.57761	156.96367	
375	3.740	276.23203	151.24770	292.55792	279.16699	147.57845	156.96439	
376	3.750	276.23175	151.24809	292.55423	279.16992	147.57884	156.96547	
377	3.760	276.22461	151.24658	292.54993	279.17172	147.57736	156.96568	
378	3.770	276.20886	151.24196	292.54370	279.17239	147.57220	156.96342	
379	3.780	276.18317	151.23276	292.53381	279.17081	147.56154	156.95699	
380	3.790	276.14703	151.21776	292.51886	279.16507	147.54384	156.94461	
381	3.800	276.10178	151.19649	292.49826	279.15262	147.51822	156.92474	
382	3.810	276.05084	151.16951	292.47278	279.13107	147.48470	156.89633	
383	3.820	275.99896	151.13809	292.44418	279.09909	147.44405	156.85907	
384	3.830	275.95074	151.10397	292.41461	279.05826	147.39804	156.81332	
385	3.840	275.90942	151.06905	292.38602	279.01379	147.34962	156.76041	
386	3.850	275.87738	151.03545	292.35956	278.97260	147.30280	156.70341	
387	3.860	275.85645	151.00581	292.33630	278.93997	147.26173	156.64795	
388	3.870	275.84744	150.98314	292.31790	278.91788	147.22968	156.60110	
389	3.880	275.84918	150.96989	292.30649	278.90561	147.20789	156.56877	
390	3.890	275.85849	150.96672	292.30365	278.90128	147.19572	156.55360	
391	3.900	275.87146	150.97179	292.30896	278.90256	147.19142	156.55469	
392	3.910	275.88437	150.98122	292.31976	278.90698	147.19269	156.56825	
393	3.920	275.89453	150.99049	292.33243	278.91232	147.19699	156.58865	
394	3.930	275.90054	150.99625	292.34357	278.91687	147.20183	156.60957	
395	3.940	275.90237	150.99701	292.35083	278.91983	147.20523	156.62518	
396	3.950	275.90106	150.99300	292.35300	278.92120	147.20630	156.63165	
397	3.960	275.89798	150.98523	292.34967	278.92126	147.20522	156.62813	
398	3.970	275.89429	150.97516	292.34143	278.92044	147.20277	156.61664	
399	3.980	275.89063	150.96455	292.33014	278.91904	147.19998	156.60114	
400	3.990	275.88681	150.95563	292.31870	278.91733	147.19783	156.58626	
401	4.000	275.88202	150.95074	292.31067	278.91528	147.19717	156.57590	
402	4.010	275.87549	150.95140	292.30899	278.91293	147.19862	156.57236	
403	4.020	275.86746	150.95761	292.31445	278.91037	147.20219	156.57616	
404	4.030	275.85965	150.96759	292.32532	278.90771	147.20718	156.58577	
405	4.040	275.85403	150.97853	292.33780	278.90524	147.21208	156.59778	
406	4.050	275.85153	150.98755	292.34827	278.90317	147.21524	156.60776	
407	4.060	275.85172	150.99248	292.35446	278.90155	147.21567	156.61201	
408	4.070	275.85358	150.99248	292.35590	278.90051	147.21336	156.60910	
409	4.080	275.85684	150.98828	292.35327	278.90036	147.20905	156.60022	
410	4.090	275.86203	150.98196	292.34839	278.90143	147.20384	156.58832	
411	4.100	275.86960	150.97607	292.34351	278.90366	147.19899	156.57683	
412	4.110	275.87915	150.97238	292.34039	278.90662	147.19548	156.56886	
413	4.120	275.88928	150.97118	292.33984	278.90991	147.19383	156.56641	
414	4.130	275.89832	150.97173	292.34158	278.91336	147.19411	156.56995	
415	4.140	275.90509	150.97336	292.34485	278.91714	147.19592	156.57867	
416	4.150	275.90948	150.97585	292.34860	278.92130	147.19865	156.59048	
417	4.160	275.91229	150.97925	292.35175	278.92572	147.20151	156.60233	
418	4.170	275.91452	150.98344	292.35339	278.92981	147.20372	156.61090	
419	4.180	275.91656	150.98776	292.35275	278.93268	147.20479	156.61360	
420	4.190	275.91800	150.99106	292.34955	278.93350	147.20436	156.60936	
421	4.200	275.91724	150.99205	292.34424	278.93188	147.20238	156.59918	
422	4.210	275.91208	150.98993	292.33801	278.92804	147.19922	156.58582	
423	4.220	275.90134	150.98502	292.33264	278.92267	147.19568	156.57289	
424	4.230	275.88614	150.97890	292.33002	278.91641	147.19278	156.56384	
425	4.240	275.87009	150.97392	292.33112	278.90976	147.19133	156.56094	
426	4.250	275.85782	150.97200	292.33600	278.90302	147.19165	156.56491	
427	4.260	275.85257	150.97354	292.34326	278.89673	147.19357	156.57487	
428	4.270	275.85486	150.97739	292.35083	278.89169	147.19652	156.58852	
429	4.280	275.86267	150.98180	292.35669	278.88861	147.19963	156.60248	
430	4.290	275.87302	150.98547	292.35950	278.88794	147.20212	156.61334	
431	4.300	275.88419	150.98793	292.35861	278.88962	147.20343	156.61838	
432	4.310	275.89612	150.98935	292.35364	278.89325	147.20334	156.61600	
433	4.320	275.90948	150.99016	292.34473	278.89813	147.20177	156.60655	
434	4.330	275.92459	150.99084	292.33289	278.90335	147.19897	156.59236	
435	4.340	275.94040	150.99164	292.32028	278.90799	147.19551	156.57671	
436	4.350	275.95444	150.99242	292.30981	278.91138	147.19203	156.56244	
437	4.360	275.96368	150.99292	292.30426	278.91333	147.18916	156.55142	
438	4.370	275.96567	150.99310	292.30530	278.91391	147.18726	156.54449	
439	4.380	275.95978	150.99319	292.31238	278.91333	147.18640	156.54153	
440	4.390	275.94714	150.99318	292.32330	278.91174	147.18642	156.54176	
441	4.400	275.93002	150.99254	292.33493	278.90952	147.18694	156.54396	
442	4.410	275.91089	150.99040	292.34467	278.90701	147.18752	156.54665	
443	4.420	275.89212	150.98616	292.35071	278.90494	147.18784	156.54865	
444	4.430	275.87616	150.98004	292.35236	278.90384	147.18782	156.54932	
445	4.440	275.86511	150.97311	292.35001	278.90417	147.18753	156.54861	
446	4.450	275.86047	150.96693	292.34497	278.90579	147.18716	156.54703	
447	4.460	275.86240	150.96275	292.33896	278.90811	147.18697	156.54552	
448	4.470	275.86954	150.96100	292.33356	278.91061	147.18718	156.54503	
449	4.480	275.87970	150.96111	292.32990	278.91290	147.18791	156.54604	
450	4.490	275.89087	150.96217	292.32840	278.91483	147.18912	156.54860	
451	4.500	275.90170	150.96373	292.32913	278.91641	147.19061	156.55243	
452	4.510	275.91144	150.96574	292.33148	278.91772	147.19215	156.55690	
453	4.520	275.91962	150.96788	292.33441	278.91873	147.19336	156.56105	
454	4.530	275.92590	150.96942	292.33667	278.91943	147.19392	156.56384	
455	4.540	275.92950	150.96954	292.33755	278.91968	147.19374	156.56459	
456	4.550	275.92892	150.96770	292.33694	278.91943	147.19304	156.56331	
457	4.560	275.92294	150.96385	292.33539	278.91867	147.19223	156.56087	
458	4.570	275.91174	150.95857	292.33362	278.91754	147.19179	156.55867	
459	4.580	275.89749	150.95313	292.33234	278.91614	147.19200	156.55800	
460	4.590	275.88354	150.94914	292.33224	278.91452	147.19301	156.55949	
461	4.600	275.87320	150.94783	292.33362	278.91278	147.19475	156.56316	
462	4.610	275.86850	150.94952	292.33618	278.91104	147.19695	156.56828	
463	4.620	275.86954	150.95375	292.33942	278.90967	147.19923	156.57385	
464	4.630	275.87485	150.95949	292.34244	278.90906	147.20135	156.57883	
465	4.640	275.88202	150.96536	292.34439	278.90964	147.20308	156.58249	
466	4.650	275.88885	150.96997	292.34473	278.91138	147.20432	156.58450	
467	4.660	275.89447	150.97238	292.34326	278.91379	147.20497	156.58488	
468	4.670	275.89935	150.97241	292.34027	278.91626	147.20506	156.58394	
469	4.680	275.90451	150.97046	292.33640	278.91837	147.20476	156.58226	
470	4.690	275.91037	150.96710	292.33258	278.91989	147.20436	156.58063	
471	4.700	275.91626	150.96301	292.32986	278.92087	147.20413	156.57974	
472	4.710	275.92072	150.95880	292.32886	278.92133	147.20424	156.57997	
